<svg width="50" height="50" viewBox="0 0 50 50" fill="none" xmlns="http://www.w3.org/2000/svg">
<mask id="mask0_128_2607" style="mask-type:alpha" maskUnits="userSpaceOnUse" x="0" y="0" width="50" height="50">
<rect width="50" height="50" fill="#D9D9D9"/>
</mask>
<g mask="url(#mask0_128_2607)">
<path d="M9.68754 44.8958C8.36073 44.8958 7.23042 44.434 6.2966 43.5104C5.36278 42.5868 4.89587 41.4687 4.89587 40.1562V9.89583C4.89587 8.56899 5.36278 7.43868 6.2966 6.50489C7.23042 5.57108 8.36073 5.10417 9.68754 5.10417H29.323V9.89583H9.68754V40.1562H39.948V20.4687H44.6875V40.1562C44.6875 41.4687 44.2079 42.5868 43.2487 43.5104C42.2895 44.434 41.1893 44.8958 39.948 44.8958H9.68754ZM36.9532 17.7083V12.9167H32.1355V9.34896H36.9271V4.53125H40.4948V9.29688H45.3125V12.8906H40.5209V17.7083H36.9532ZM12.448 35.2083H37.2396L29.7917 25.3646L23.2292 34.0104L18.3334 27.5521L12.448 35.2083Z" fill="#1C1B1F"/>
</g>
</svg>
