<svg width="45" height="45" viewBox="0 0 45 45" fill="none" xmlns="http://www.w3.org/2000/svg">
<g id="&#240;&#159;&#166;&#134; icon &#34;User avatar filled alt&#34;">
<path id="Vector" d="M22.5 11.25C21.1094 11.25 19.7499 11.6624 18.5937 12.435C17.4374 13.2076 16.5362 14.3057 16.004 15.5905C15.4718 16.8753 15.3326 18.289 15.6039 19.653C15.8752 21.0169 16.5448 22.2698 17.5282 23.2531C18.5115 24.2364 19.7643 24.9061 21.1283 25.1774C22.4922 25.4487 23.906 25.3095 25.1907 24.7773C26.4755 24.2451 27.5737 23.3439 28.3463 22.1876C29.1189 21.0313 29.5313 19.6719 29.5313 18.2812C29.5313 16.4164 28.7905 14.628 27.4718 13.3094C26.1532 11.9908 24.3648 11.25 22.5 11.25Z" fill="black"/>
<path id="Vector_2" d="M22.5 2.8125C18.6062 2.8125 14.7998 3.96715 11.5622 6.13044C8.32463 8.29373 5.80123 11.3685 4.31113 14.9659C2.82103 18.5633 2.43115 22.5218 3.1908 26.3408C3.95045 30.1598 5.8255 33.6678 8.57884 36.4212C11.3322 39.1745 14.8402 41.0496 18.6592 41.8092C22.4782 42.5689 26.4367 42.179 30.0341 40.6889C33.6315 39.1988 36.7063 36.6754 38.8696 33.4378C41.0329 30.2002 42.1875 26.3938 42.1875 22.5C42.1816 17.2804 40.1055 12.2762 36.4147 8.58533C32.7238 4.89448 27.7197 2.81838 22.5 2.8125ZM33.7395 35.0519C33.7115 33.2073 32.9599 31.4474 31.6466 30.1517C30.3334 28.856 28.5636 28.1281 26.7188 28.125H18.2813C16.4364 28.1281 14.6666 28.856 13.3534 30.1517C12.0401 31.4474 11.2885 33.2073 11.2606 35.0519C8.71041 32.7748 6.91205 29.7769 6.1036 26.455C5.29516 23.1332 5.51476 19.6441 6.73333 16.4498C7.9519 13.2556 10.112 10.5068 12.9275 8.56739C15.743 6.62803 19.0812 5.5896 22.5 5.5896C25.9188 5.5896 29.257 6.62803 32.0725 8.56739C34.8881 10.5068 37.0481 13.2556 38.2667 16.4498C39.4853 19.6441 39.7049 23.1332 38.8964 26.455C38.088 29.7769 36.2896 32.7748 33.7395 35.0519Z" fill="black"/>
</g>
</svg>
